EAC extraction logfile from 1. November 2007, 12:51 for CD
Various / The Mirwood Soul Story

Used drive  : PIONEER DVD-RW  DVR-112D   Adapter: 0  ID: 2
Read mode   : Burst
Read offset correction : 0
Overread into Lead-In and Lead-Out : No

Used output format : Internal WAV Routines
                     44.100 Hz; 16 Bit; Stereo

Other options      : 
    Fill up missing offset samples with silence : Yes
    Delete leading and trailing silent blocks : No
    Native Win32 interface for Win NT & 2000


Track  1
     Filename C:\Documents and Settings\Kent Wang\My Documents\Temp\Extract\01 - Jackie Lee - Oh, My Darlin'.wav

     Peak level 83.7 %
     Test CRC F94B34E5
     Copy CRC F94B34E5
     Copy OK

Track  2
     Filename C:\Documents and Settings\Kent Wang\My Documents\Temp\Extract\02 - The Olympics - Baby, Do The Philly Dog.wav

     Peak level 85.0 %
     Test CRC CE6A686C
     Copy CRC CE6A686C
     Copy OK

Track  3
     Filename C:\Documents and Settings\Kent Wang\My Documents\Temp\Extract\03 - The Performers - Set Me Free.wav

     Peak level 100.0 %
     Test CRC C36F36A8
     Copy CRC C36F36A8
     Copy OK

Track  4
     Filename C:\Documents and Settings\Kent Wang\My Documents\Temp\Extract\04 - The Belles - Words Can't Explain.wav

     Peak level 100.0 %
     Test CRC 470B471D
     Copy CRC 470B471D
     Copy OK

Track  5
     Filename C:\Documents and Settings\Kent Wang\My Documents\Temp\Extract\05 - Jimmy Thomas - Where There's a Will.wav

     Peak level 87.1 %
     Test CRC C1E5030D
     Copy CRC C1E5030D
     Copy OK

Track  6
     Filename C:\Documents and Settings\Kent Wang\My Documents\Temp\Extract\06 - Bobby Garrett - My Little Girl.wav

     Peak level 86.0 %
     Test CRC 53122BF0
     Copy CRC 53122BF0
     Copy OK

Track  7
     Filename C:\Documents and Settings\Kent Wang\My Documents\Temp\Extract\07 - The Olympics - The Same Old Thing.wav

     Peak level 63.1 %
     Test CRC D407D860
     Copy CRC D407D860
     Copy OK

Track  8
     Filename C:\Documents and Settings\Kent Wang\My Documents\Temp\Extract\08 - Richard Temple - That Beatin' Rhythm.wav

     Peak level 72.2 %
     Test CRC FA24C207
     Copy CRC FA24C207
     Copy OK

Track  9
     Filename C:\Documents and Settings\Kent Wang\My Documents\Temp\Extract\09 - Bob & Earl - Baby, Your Time Is My Time.wav

     Peak level 100.0 %
     Test CRC 4A836711
     Copy CRC 4A836711
     Copy OK

Track 10
     Filename C:\Documents and Settings\Kent Wang\My Documents\Temp\Extract\10 - The Sheppards - Stubborn Heart.wav

     Peak level 86.5 %
     Test CRC E5A1B141
     Copy CRC E5A1B141
     Copy OK

Track 11
     Filename C:\Documents and Settings\Kent Wang\My Documents\Temp\Extract\11 - The Mirettes - Your Kind Ain't No Good.wav

     Peak level 79.8 %
     Test CRC 8055BB43
     Copy CRC 8055BB43
     Copy OK

Track 12
     Filename C:\Documents and Settings\Kent Wang\My Documents\Temp\Extract\12 - Jackie Lee & Delores Hall - Whether It's Right or Wrong.wav

     Peak level 89.7 %
     Test CRC 4F1B89E5
     Copy CRC 4F1B89E5
     Copy OK

Track 13
     Filename C:\Documents and Settings\Kent Wang\My Documents\Temp\Extract\13 - The Darlettes - Lost.wav

     Peak level 85.1 %
     Test CRC E40AC428
     Copy CRC E40AC428
     Copy OK

Track 14
     Filename C:\Documents and Settings\Kent Wang\My Documents\Temp\Extract\14 - The Mirettes - Now That I Found You, Baby.wav

     Timing problem 0:01:22
     Timing problem 0:02:26

     Peak level 99.7 %
     Test CRC 758B6D9C
     Copy CRC 758B6D9C
     Copy finished

Track 15
     Filename C:\Documents and Settings\Kent Wang\My Documents\Temp\Extract\15 - The Belles - Don't Pretend.wav

     Timing problem 0:00:12
     Timing problem 0:01:32 - 0:01:33

     Peak level 85.7 %
     Test CRC 1985995E
     Copy CRC 1985995E
     Copy finished

Track 16
     Filename C:\Documents and Settings\Kent Wang\My Documents\Temp\Extract\16 - Bobby Garrett - Keep It Coming.wav

     Peak level 93.3 %
     Test CRC C36ACDE8
     Copy CRC C36ACDE8
     Copy OK

Track 17
     Filename C:\Documents and Settings\Kent Wang\My Documents\Temp\Extract\17 - Jackie Lee - Do The Temptation Walk.wav

     Peak level 95.2 %
     Test CRC 34B8CAD6
     Copy CRC 34B8CAD6
     Copy OK

Track 18
     Filename C:\Documents and Settings\Kent Wang\My Documents\Temp\Extract\18 - The Olympics - I'll Do A Little Bit More.wav

     Timing problem 0:02:00

     Peak level 100.0 %
     Test CRC D9432613
     Copy CRC D9432613
     Copy finished

Track 19
     Filename C:\Documents and Settings\Kent Wang\My Documents\Temp\Extract\19 - Curtis Lee - Is She In Your Town .wav

     Timing problem 0:00:29

     Peak level 66.9 %
     Test CRC A0C31ECF
     Copy CRC A0C31ECF
     Copy finished

Track 20
     Filename C:\Documents and Settings\Kent Wang\My Documents\Temp\Extract\20 - Bobby Garrett - I Can't Get Away.wav

     Peak level 80.2 %
     Test CRC F3982868
     Copy CRC F3982868
     Copy OK

Track 21
     Filename C:\Documents and Settings\Kent Wang\My Documents\Temp\Extract\21 - Jackie Lee - Anything You Want (a.k.a. Any Way You Want).wav

     Peak level 100.0 %
     Test CRC B500F79E
     Copy CRC B500F79E
     Copy OK

Track 22
     Filename C:\Documents and Settings\Kent Wang\My Documents\Temp\Extract\22 - Earl Cosby - Ooh Honey Baby.wav

     Peak level 98.8 %
     Test CRC 20FAFAC4
     Copy CRC 20FAFAC4
     Copy OK

Track 23
     Filename C:\Documents and Settings\Kent Wang\My Documents\Temp\Extract\23 - Jimmy Thomas - Just Tryin' To Please You.wav

     Timing problem 0:00:45

     Peak level 84.9 %
     Test CRC 7891E6AE
     Copy CRC 7891E6AE
     Copy finished

Track 24
     Filename C:\Documents and Settings\Kent Wang\My Documents\Temp\Extract\24 - The Performers - I Can't Stop You.wav

     Peak level 100.0 %
     Test CRC F4B7C126
     Copy CRC F4B7C126
     Copy OK

No errors occured


End of status report
